<?xml version="1.0" encoding="UTF-8" standalone="no"?>
<!-- Generator: Adobe Illustrator 19.0.0, SVG Export Plug-In . SVG Version: 6.00 Build 0)  -->

<svg
   xmlns:dc="http://purl.org/dc/elements/1.1/"
   xmlns:cc="http://creativecommons.org/ns#"
   xmlns:rdf="http://www.w3.org/1999/02/22-rdf-syntax-ns#"
   xmlns:svg="http://www.w3.org/2000/svg"
   xmlns="http://www.w3.org/2000/svg"
   xmlns:sodipodi="http://sodipodi.sourceforge.net/DTD/sodipodi-0.dtd"
   xmlns:inkscape="http://www.inkscape.org/namespaces/inkscape"
   version="1.1"
   id="Capa_1"
   x="0px"
   y="0px"
   viewBox="0 0 430.23575 430.23575"
   xml:space="preserve"
   sodipodi:docname="add.svg"
   width="430.23575"
   height="430.23575"
   inkscape:version="0.92.5 (2060ec1f9f, 2020-04-08)"><metadata
   id="metadata49"><rdf:RDF><cc:Work
       rdf:about=""><dc:format>image/svg+xml</dc:format><dc:type
         rdf:resource="http://purl.org/dc/dcmitype/StillImage" /><dc:title></dc:title></cc:Work></rdf:RDF></metadata><defs
   id="defs47">
	

		
	</defs><sodipodi:namedview
   pagecolor="#ffffff"
   bordercolor="#666666"
   borderopacity="1"
   objecttolerance="10"
   gridtolerance="10"
   guidetolerance="10"
   inkscape:pageopacity="0"
   inkscape:pageshadow="2"
   inkscape:window-width="1366"
   inkscape:window-height="704"
   id="namedview45"
   showgrid="false"
   fit-margin-top="0"
   fit-margin-left="0"
   fit-margin-right="0"
   fit-margin-bottom="0"
   inkscape:zoom="1.0273437"
   inkscape:cx="215.11787"
   inkscape:cy="215.11787"
   inkscape:window-x="0"
   inkscape:window-y="27"
   inkscape:window-maximized="1"
   inkscape:current-layer="Capa_1" />
<path
   sodipodi:nodetypes="sssss"
   style="fill:#bbbac6;fill-opacity:1;stroke-width:0.10000001;stroke-miterlimit:4;stroke-dasharray:none"
   inkscape:connector-curvature="0"
   id="path868"
   d="M 215.11787,0 C 96.660191,0 0,96.676991 0,215.11787 c 0,118.45768 96.676991,215.11787 215.11787,215.11787 118.45768,0 215.11787,-96.677 215.11787,-215.11787 C 430.23574,96.660191 333.55874,0 215.11787,0 Z" />

<g
   id="g14"
   transform="translate(-40.882129,-40.882129)">
</g>
<g
   id="g16"
   transform="translate(-40.882129,-40.882129)">
</g>
<g
   id="g18"
   transform="translate(-40.882129,-40.882129)">
</g>
<g
   id="g20"
   transform="translate(-40.882129,-40.882129)">
</g>
<g
   id="g22"
   transform="translate(-40.882129,-40.882129)">
</g>
<g
   id="g24"
   transform="translate(-40.882129,-40.882129)">
</g>
<g
   id="g26"
   transform="translate(-40.882129,-40.882129)">
</g>
<g
   id="g28"
   transform="translate(-40.882129,-40.882129)">
</g>
<g
   id="g30"
   transform="translate(-40.882129,-40.882129)">
</g>
<g
   id="g32"
   transform="translate(-40.882129,-40.882129)">
</g>
<g
   id="g34"
   transform="translate(-40.882129,-40.882129)">
</g>
<g
   id="g36"
   transform="translate(-40.882129,-40.882129)">
</g>
<g
   id="g38"
   transform="translate(-40.882129,-40.882129)">
</g>
<g
   id="g40"
   transform="translate(-40.882129,-40.882129)">
</g>
<g
   id="g42"
   transform="translate(-40.882129,-40.882129)">
</g>
<path
   style="color:#000000;display:inline;overflow:visible;visibility:visible;opacity:1;vector-effect:none;fill:#2ca089;fill-opacity:1;fill-rule:nonzero;stroke:none;stroke-width:0.10000002;stroke-miterlimit:4;stroke-dasharray:none;stroke-opacity:1;marker:none;enable-background:accumulate"
   d="m 187.41186,45.570343 c -5.71433,0 -10.31374,3.738147 -10.31374,8.381042 V 177.09812 H 53.951385 c -4.642895,0 -8.381042,4.59941 -8.381042,10.31374 v 55.41201 c 0,5.71434 3.738147,10.31375 8.381042,10.31375 H 177.09812 v 123.14673 c 0,4.64289 4.59941,8.38105 10.31374,8.38105 h 55.41201 c 5.71434,0 10.31375,-3.73816 10.31375,-8.38105 V 253.13762 h 123.14673 c 4.64289,0 8.38105,-4.59941 8.38105,-10.31375 v -55.41201 c 0,-5.71433 -3.73816,-10.31374 -8.38105,-10.31374 H 253.13762 V 53.951385 c 0,-4.642895 -4.59941,-8.381042 -10.31375,-8.381042 z"
   id="rect861"
   inkscape:connector-curvature="0" /></svg>