<?xml version="1.0" encoding="UTF-8" standalone="no"?>
<svg
   xmlns:dc="http://purl.org/dc/elements/1.1/"
   xmlns:cc="http://creativecommons.org/ns#"
   xmlns:rdf="http://www.w3.org/1999/02/22-rdf-syntax-ns#"
   xmlns:svg="http://www.w3.org/2000/svg"
   xmlns="http://www.w3.org/2000/svg"
   xmlns:sodipodi="http://sodipodi.sourceforge.net/DTD/sodipodi-0.dtd"
   xmlns:inkscape="http://www.inkscape.org/namespaces/inkscape"
   xml:space="preserve"
   viewBox="0 0 411.61963 519.43847"
   y="0px"
   x="0px"
   id="Capa_1"
   version="1.1"
   sodipodi:docname="dropdown.svg"
   inkscape:version="0.92.5 (2060ec1f9f, 2020-04-08)"
   width="411.61963"
   height="519.43848"><sodipodi:namedview
   pagecolor="#ffffff"
   bordercolor="#666666"
   borderopacity="1"
   objecttolerance="10"
   gridtolerance="10"
   guidetolerance="10"
   inkscape:pageopacity="0"
   inkscape:pageshadow="2"
   inkscape:window-width="1366"
   inkscape:window-height="704"
   id="namedview21"
   showgrid="false"
   inkscape:zoom="1.1243444"
   inkscape:cx="205.80981"
   inkscape:cy="195.39142"
   inkscape:window-x="0"
   inkscape:window-y="27"
   inkscape:window-maximized="1"
   inkscape:current-layer="Capa_1"
   fit-margin-top="0"
   fit-margin-left="0"
   fit-margin-right="0"
   fit-margin-bottom="0" /><metadata
   id="metadata43"><rdf:RDF><cc:Work
       rdf:about=""><dc:format>image/svg+xml</dc:format><dc:type
         rdf:resource="http://purl.org/dc/dcmitype/StillImage" /><dc:title></dc:title></cc:Work></rdf:RDF></metadata><defs
   id="defs41" />

<path
   style="color:#000000;display:inline;overflow:visible;visibility:visible;opacity:1;vector-effect:none;fill:#2ca089;fill-opacity:1;fill-rule:nonzero;stroke:none;stroke-width:0.1;stroke-miterlimit:4;stroke-dasharray:none;stroke-opacity:1;marker:none;enable-background:accumulate"
   d="m 105.99501,32.611674 c -0.29259,0.279983 -0.57676,0.576859 -0.85082,0.887947 L 78.878823,58.232582 c -4.38505,4.977431 -4.52557,11.971952 -0.3139,15.682372 L 283.75166,254.68105 75.847813,438.97127 c -4.20032,3.72325 -4.47771,11.1442 0.36223,15.68053 l 26.328087,24.67652 c 4.40022,4.96401 11.36146,6.00668 15.5238,2.241 L 336.86752,283.61558 c 1.06132,-0.67952 2.06617,-1.5228 2.96088,-2.53844 l 0.34676,-0.39351 14.99177,-13.28902 c 5.83234,-3.88431 7.97325,-18.25352 3.2391,-22.73129 L 120.66167,31.212982 c -3.94843,-3.47852 -10.27774,-2.801047 -14.66666,1.398692 z"
   id="rect833"
   inkscape:connector-curvature="0"
   sodipodi:nodetypes="sccccsscsccccccs" /><g
   id="g8"
   transform="translate(-35.099884,0.39992204)">
</g>
<g
   id="g10"
   transform="translate(-35.099884,0.39992204)">
</g>
<g
   id="g12"
   transform="translate(-35.099884,0.39992204)">
</g>
<g
   id="g14"
   transform="translate(-35.099884,0.39992204)">
</g>
<g
   id="g16"
   transform="translate(-35.099884,0.39992204)">
</g>
<g
   id="g18"
   transform="translate(-35.099884,0.39992204)">
</g>
<g
   id="g20"
   transform="translate(-35.099884,0.39992204)">
</g>
<g
   id="g22"
   transform="translate(-35.099884,0.39992204)">
</g>
<g
   id="g24"
   transform="translate(-35.099884,0.39992204)">
</g>
<g
   id="g26"
   transform="translate(-35.099884,0.39992204)">
</g>
<g
   id="g28"
   transform="translate(-35.099884,0.39992204)">
</g>
<g
   id="g30"
   transform="translate(-35.099884,0.39992204)">
</g>
<g
   id="g32"
   transform="translate(-35.099884,0.39992204)">
</g>
<g
   id="g34"
   transform="translate(-35.099884,0.39992204)">
</g>
<g
   id="g36"
   transform="translate(-35.099884,0.39992204)">
</g>
</svg>