<?xml version="1.0" encoding="UTF-8" standalone="no"?>
<!-- Generator: Adobe Illustrator 19.0.0, SVG Export Plug-In . SVG Version: 6.00 Build 0)  -->

<svg
   xmlns:dc="http://purl.org/dc/elements/1.1/"
   xmlns:cc="http://creativecommons.org/ns#"
   xmlns:rdf="http://www.w3.org/1999/02/22-rdf-syntax-ns#"
   xmlns:svg="http://www.w3.org/2000/svg"
   xmlns="http://www.w3.org/2000/svg"
   xmlns:sodipodi="http://sodipodi.sourceforge.net/DTD/sodipodi-0.dtd"
   xmlns:inkscape="http://www.inkscape.org/namespaces/inkscape"
   version="1.1"
   id="Capa_1"
   x="0px"
   y="0px"
   viewBox="0 0 471.51408 469.69197"
   xml:space="preserve"
   sodipodi:docname="editar.svg"
   inkscape:version="0.92.5 (2060ec1f9f, 2020-04-08)"
   width="471.51407"
   height="469.69196"><metadata
   id="metadata49"><rdf:RDF><cc:Work
       rdf:about=""><dc:format>image/svg+xml</dc:format><dc:type
         rdf:resource="http://purl.org/dc/dcmitype/StillImage" /><dc:title></dc:title></cc:Work></rdf:RDF></metadata><defs
   id="defs47" /><sodipodi:namedview
   pagecolor="#ffffff"
   bordercolor="#666666"
   borderopacity="1"
   objecttolerance="10"
   gridtolerance="10"
   guidetolerance="10"
   inkscape:pageopacity="0"
   inkscape:pageshadow="2"
   inkscape:window-width="1366"
   inkscape:window-height="704"
   id="namedview45"
   showgrid="false"
   inkscape:zoom="1.1007264"
   inkscape:cx="216.32896"
   inkscape:cy="221.932"
   inkscape:window-x="0"
   inkscape:window-y="27"
   inkscape:window-maximized="1"
   inkscape:current-layer="Capa_1"
   fit-margin-top="0"
   fit-margin-left="0"
   fit-margin-right="0"
   fit-margin-bottom="0" />
<g
   id="g6"
   style="fill:#2ca089;fill-opacity:1"
   transform="translate(-3.1794659,-4.0905084)">
	<g
   id="g4"
   style="fill:#2ca089;fill-opacity:1"
   transform="translate(765.85792,8.1764191)">
		<path
   d="m 385.27998,235.13941 c -9.426,0 -25.81398,11.43859 -25.81398,20.86459 V 414.67 c 0,9.426 0.359,13.067 -9.067,13.067 H 63.2 c -9.426,0 -12.089522,-6.28682 -12.117603,-15.71278 L 50.133,93.337 C 50.104919,83.911042 49.774,84.27 59.2,84.27 H 256 c 9.426,0 17.067,-15.641 17.067,-25.067 0,-9.426 -7.641,-25.066 -17.067,-25.066 H 51.2 C 22.923,34.137 0,57.06 0,85.337 V 426.67 c 0,28.277 22.923,51.2 51.2,51.2 h 307.2 c 28.277,0 51.2,-22.923 51.2,-51.2 V 256.003 c 0,-9.425 -14.89402,-20.86359 -24.32002,-20.86359 z"
   id="path2"
   inkscape:connector-curvature="0"
   sodipodi:nodetypes="sssssssssssssssssss"
   style="fill:#2ca089;fill-opacity:1" />
	</g>
</g>

<g
   id="g14"
   transform="translate(-3.1794659,-4.0905084)">
</g>
<g
   id="g16"
   transform="translate(-3.1794659,-4.0905084)">
</g>
<g
   id="g18"
   transform="translate(-3.1794659,-4.0905084)">
</g>
<g
   id="g20"
   transform="translate(-3.1794659,-4.0905084)">
</g>
<g
   id="g22"
   transform="translate(-3.1794659,-4.0905084)">
</g>
<g
   id="g24"
   transform="translate(-3.1794659,-4.0905084)">
</g>
<g
   id="g26"
   transform="translate(-3.1794659,-4.0905084)">
</g>
<g
   id="g28"
   transform="translate(-3.1794659,-4.0905084)">
</g>
<g
   id="g30"
   transform="translate(-3.1794659,-4.0905084)">
</g>
<g
   id="g32"
   transform="translate(-3.1794659,-4.0905084)">
</g>
<g
   id="g34"
   transform="translate(-3.1794659,-4.0905084)">
</g>
<g
   id="g36"
   transform="translate(-3.1794659,-4.0905084)">
</g>
<g
   id="g38"
   transform="translate(-3.1794659,-4.0905084)">
</g>
<g
   id="g40"
   transform="translate(-3.1794659,-4.0905084)">
</g>
<g
   id="g42"
   transform="translate(-3.1794659,-4.0905084)">
</g>
<g
   id="g12"
   style="fill:#2ca089;fill-opacity:1;stroke-width:1.06165171"
   transform="matrix(0.94192853,0,0,0.94192853,21.391609,-0.00351338)">
	<g
   id="g10"
   style="fill:#2ca089;fill-opacity:1;stroke-width:1.06165171">
		<path
   d="M 458.742,19.142 C 446.488,6.886 429.867,0.002 412.536,0.004 395.195,-0.046 378.557,6.85 366.337,19.153 L 141.534,243.937 c -1.865,1.879 -3.272,4.163 -4.113,6.673 l -34.133,102.4 c -2.979,8.943 1.856,18.607 10.799,21.585 1.735,0.578 3.552,0.873 5.38,0.875 1.832,-0.003 3.653,-0.297 5.393,-0.87 l 102.4,-34.133 c 2.515,-0.84 4.8,-2.254 6.673,-4.13 L 458.735,111.535 c 25.515,-25.512 25.518,-66.878 0.007,-92.393 z"
   id="path8"
   style="fill:#2ca089;fill-opacity:1;stroke-width:1.06165171"
   inkscape:connector-curvature="0" />
	</g>
</g><g
   transform="matrix(3.7795276,0,0,3.7795276,613.88576,-154.22119)"
   id="layer1"
   inkscape:label="Capa 1"><path
     style="color:#000000;display:inline;overflow:visible;visibility:visible;opacity:1;vector-effect:none;fill:#2ca089;fill-opacity:0.92941176;fill-rule:nonzero;stroke:none;stroke-width:0.99999994;stroke-miterlimit:4;stroke-dasharray:none;stroke-opacity:1;marker:none;enable-background:accumulate"
     d="m -101.61008,43.449306 a 60.814007,60.814007 0 0 0 -60.81386,60.813854 60.814007,60.814007 0 0 0 60.81386,60.81386 60.814007,60.814007 0 0 0 60.814375,-60.81386 60.814007,60.814007 0 0 0 -60.814375,-60.813854 z m 0,12.73979 a 48.07431,48.07431 0 0 1 48.074584,48.074064 48.07431,48.07431 0 0 1 -48.074584,48.07459 48.07431,48.07431 0 0 1 -48.07407,-48.07459 48.07431,48.07431 0 0 1 48.07407,-48.074064 z"
     id="path1356"
     inkscape:connector-curvature="0" /></g></svg>