<?xml version="1.0" encoding="UTF-8" standalone="no"?>
<!-- Created with Inkscape (http://www.inkscape.org/) -->

<svg
   xmlns:dc="http://purl.org/dc/elements/1.1/"
   xmlns:cc="http://creativecommons.org/ns#"
   xmlns:rdf="http://www.w3.org/1999/02/22-rdf-syntax-ns#"
   xmlns:svg="http://www.w3.org/2000/svg"
   xmlns="http://www.w3.org/2000/svg"
   xmlns:sodipodi="http://sodipodi.sourceforge.net/DTD/sodipodi-0.dtd"
   xmlns:inkscape="http://www.inkscape.org/namespaces/inkscape"
   width="116.12933mm"
   height="116.12675mm"
   viewBox="0 0 116.12933 116.12675"
   version="1.1"
   id="svg955"
   inkscape:version="0.92.5 (2060ec1f9f, 2020-04-08)"
   sodipodi:docname="logo.svg">
  <defs
     id="defs949" />
  <sodipodi:namedview
     id="base"
     pagecolor="#ffffff"
     bordercolor="#666666"
     borderopacity="1.0"
     inkscape:pageopacity="0.0"
     inkscape:pageshadow="2"
     inkscape:zoom="0.74648437"
     inkscape:cx="400.43033"
     inkscape:cy="60.080076"
     inkscape:document-units="mm"
     inkscape:current-layer="layer1"
     showgrid="false"
     fit-margin-top="0"
     fit-margin-left="-0.9"
     fit-margin-right="0"
     fit-margin-bottom="0"
     inkscape:pagecheckerboard="false"
     inkscape:window-width="1366"
     inkscape:window-height="704"
     inkscape:window-x="0"
     inkscape:window-y="27"
     inkscape:window-maximized="1" />
  <metadata
     id="metadata952">
    <rdf:RDF>
      <cc:Work
         rdf:about="">
        <dc:format>image/svg+xml</dc:format>
        <dc:type
           rdf:resource="http://purl.org/dc/dcmitype/StillImage" />
        <dc:title></dc:title>
      </cc:Work>
    </rdf:RDF>
  </metadata>
  <g
     inkscape:label="Capa 1"
     inkscape:groupmode="layer"
     id="layer1"
     transform="translate(6.3165451,-48.602763)">
    <path
       style="font-style:normal;font-variant:normal;font-weight:normal;font-stretch:normal;font-size:48.36936188px;line-height:125%;font-family:'Bite Chocolate';-inkscape-font-specification:'Bite Chocolate, Normal';font-variant-ligatures:normal;font-variant-caps:normal;font-variant-numeric:normal;font-feature-settings:normal;text-align:start;letter-spacing:0px;word-spacing:0px;writing-mode:lr-tb;text-anchor:start;fill:#2ca089;fill-opacity:1;stroke:none;stroke-width:2;stroke-linecap:butt;stroke-linejoin:miter;stroke-miterlimit:4;stroke-dasharray:none;stroke-opacity:1"
       d="m 51.748125,48.602763 c -32.00613,0 -58.0646701,26.05803 -58.0646701,58.064167 0,32.00613 26.0586101,58.06259 58.0646701,58.06259 32.006061,0 58.064665,-26.05646 58.064665,-58.06259 0,-16.134876 -6.66859,-30.720297 -17.332265,-41.251757 0.8885,-0.76079 1.80117,-1.56609 2.60552,-2.16007 1.96856,-1.45371 3.53598,-2.11486 4.42557,-2.19573 l -0.0233,0.002 c 0.555825,-0.0428 1.364845,-0.39062 1.753885,-1.05058 0.38905,-0.65996 0.34175,-1.27621 0.25219,-1.7539 -0.1565,-0.83472 -0.54109,-1.59557 -1.06299,-2.3182 -0.537655,-0.74449 -1.212375,-1.39302 -1.993675,-1.93993 -0.87614,-0.61331 -1.91936,-0.98438 -2.98276,-0.93121 a 1.6793339,1.6793339 0 0 0 -0.0548,0.004 c -1.78892,0.14907 -3.454728,1.14577 -5.437389,2.71663 -5.29e-4,5.03e-4 -0.0011,0.002 -0.0021,0.002 -1.32746,1.03007 -2.803772,2.42558 -4.308261,3.88297 -9.553649,-6.91033 -21.24017,-11.07014 -33.90429,-11.07014 z m 0,10.85929 c 9.843942,0 18.894552,3.07794 26.445411,8.20312 -0.734211,0.84947 -1.457211,1.67616 -2.22467,2.59157 a 1.6793339,1.6793339 0 0 0 -0.006,0.008 c -2.655019,3.20546 -5.37387,6.585949 -8.15609,10.1446 a 1.6793339,1.6793339 0 0 0 -0.006,0.008 c -2.747991,3.55623 -5.51344,7.2098 -8.293031,10.95902 a 1.6793339,1.6793339 0 0 0 0,0.0021 c -2.74583,3.71494 -5.378288,7.333501 -7.898741,10.855667 a 1.6793339,1.6793339 0 0 0 -0.0021,0.002 c -2.485792,3.48661 -4.810662,6.77972 -6.974771,9.88054 a 1.6793339,1.6793339 0 0 0 -0.0021,0.002 c -0.356439,0.513 -0.583179,0.84732 -0.923449,1.3379 0.23776,-1.21732 0.46609,-2.32994 0.706929,-3.58429 l 0.0021,-0.01 c 0.80549,-4.05981 1.58046,-8.05417 2.321819,-11.986346 l 0.0021,-0.01339 c 0.7737,-3.933129 1.500219,-7.70732 2.177651,-11.32024 0.676237,-3.60658 1.272,-6.79351 1.787487,-9.56428 l 0.0021,-0.01601 c 0.545701,-2.793279 0.964271,-5.061319 1.2578,-6.820259 l 0.006,-0.031 c 0.316021,-1.70679 0.485392,-2.62783 0.531231,-2.90266 a 1.6793339,1.6793339 0 0 0 0.0155,-0.11317 c 0.11883,-1.22791 -0.01939,-2.40942 -0.60565,-3.42202 -0.516559,-0.89223 -1.317418,-1.6084 -2.253609,-2.03295 -0.824841,-0.38748 -1.73431,-0.59194 -2.68355,-0.63458 -0.865791,-0.0711 -1.71655,-0.0375 -2.53732,0.11885 a 1.6793339,1.6793339 0 0 0 -0.0155,0.004 c -0.748999,0.1498 -1.44076,0.36064 -2.074289,0.65629 -0.676881,0.31589 -1.50832,0.81579 -1.693439,1.96835 -0.0711,0.35401 -0.123772,0.80304 0.115239,1.32654 0.254159,0.556661 0.846061,0.97079 1.297081,1.09967 a 1.6793339,1.6793339 0 0 0 0.0527,0.0134 c 0.0831,0.0208 0.222171,0.0724 0.411861,0.17776 a 1.6793339,1.6793339 0 0 0 0.01651,0.008 c 0.005,0.008 0.0011,10e-4 0.02479,0.0481 a 1.6793339,1.6793339 0 0 0 0.0507,0.0961 c -0.19504,-0.3343 0.01429,0.0734 -0.14832,0.913641 -0.006,0.0343 -0.0296,0.108659 -0.0413,0.162259 -0.0271,0.12407 -0.06,0.284411 -0.10128,0.486281 -0.0825,0.403729 -0.1965,0.97454 -0.342101,1.71876 a 1.6793339,1.6793339 0 0 0 -0.006,0.0351 c -0.256688,1.47599 -0.611438,3.45495 -1.062458,5.935549 -0.45062,2.446179 -0.981781,5.28167 -1.59371,8.502319 a 1.6793339,1.6793339 0 0 0 -0.0021,0.01551 c -0.579782,3.221 -1.207971,6.651741 -1.884641,10.29291 a 1.6793339,1.6793339 0 0 0 -0.0021,0.01191 c -0.644149,3.607239 -1.320671,7.309946 -2.029331,11.110946 -0.71017,3.80911 -1.38725,7.52293 -2.032949,11.13886 -0.64543,3.61437 -1.24419,7.01784 -1.79318,10.21488 -0.547901,3.19072 -1.032351,5.97776 -1.45107,8.36126 a 1.6793339,1.6793339 0 0 0 -0.004,0.0253 c -0.388091,2.42556 -0.676809,4.33762 -0.872821,5.74227 a 1.6793339,1.6793339 0 0 0 -0.0021,0.006 c -0.0985,0.72262 -0.16423,1.27123 -0.20102,1.68518 -0.01839,0.20697 -0.0315,0.37279 -0.0315,0.56275 8e-6,0.095 -0.003,0.18928 0.02529,0.37104 0.01429,0.0909 0.0304,0.20296 0.11162,0.40255 0.0812,0.1996 0.22288,0.58663 0.814419,0.88264 a 1.6793339,1.6793339 0 0 0 0.22066,0.092 c 0.43066,0.14357 0.803781,0.1802 1.261941,0.21653 0.545431,0.0742 1.10589,0.0888 1.677421,0.0568 0.67809,-0.004 1.351328,-0.10885 1.99212,-0.32246 0.738068,-0.24604 1.427649,-0.69322 1.92805,-1.30483 a 1.6793339,1.6793339 0 0 0 0.0977,-0.13074 c 0.276778,-0.41517 0.259649,-0.516 0.32815,-0.72657 0.0685,-0.21057 0.13553,-0.45001 0.212899,-0.74207 0.15271,-0.57644 0.34009,-1.36006 0.564309,-2.3518 l 0.008,-0.031 c 0.46963,-1.912 1.016522,-4.43093 1.62677,-7.43365 1.11175,-1.65029 2.55229,-3.77436 4.410591,-6.49986 1.358839,-1.99299 3.044341,-4.36879 4.69325,-6.7014 0.27091,0.86923 0.464259,1.56623 0.789099,2.55488 a 1.6793339,1.6793339 0 0 0 0.0021,0.008 c 0.75307,2.25921 1.61926,4.61013 2.597779,7.05642 a 1.6793339,1.6793339 0 0 0 0.0021,0.008 c 0.98525,2.43029 2.0848,4.82792 3.299031,7.19129 5.3e-4,8e-4 0.0021,10e-4 0.0021,0.002 0.0011,0.002 5.29e-4,0.004 0.0021,0.006 1.226891,2.41967 2.529091,4.57321 3.91243,6.46265 a 1.6793339,1.6793339 0 0 0 0.004,0.004 c 1.42971,1.94032 2.94273,3.5016 4.568719,4.66173 0.0011,8e-4 0.0021,0.001 0.004,0.002 1.706959,1.25061 3.657761,1.87842 5.61517,1.67019 a 1.6793339,1.6793339 0 0 0 0.0589,-0.008 c 0.77901,-0.11115 1.180949,-0.43152 1.654169,-0.78703 0.560711,-0.39236 1.042721,-0.91032 1.359609,-1.55288 0.216091,-0.39015 0.384332,-0.88929 0.32969,-1.41748 -0.0578,-0.5585 -0.326808,-1.04326 -0.62683,-1.38287 -0.529569,-0.60274 -1.073959,-0.72791 -1.564248,-0.82837 -0.491501,-0.1007 -0.996551,-0.13075 -1.58233,-0.13074 0.0021,0 -0.554292,-0.15866 -1.378731,-1.23042 -0.87662,-1.1396 -1.830872,-2.70232 -2.830319,-4.67 -1.004023,-1.97666 -2.016821,-4.20402 -3.030821,-6.67401 l -0.004,-0.0114 c -0.0021,-0.004 -0.004,-0.007 -0.006,-0.0119 -0.98955,-2.52252 -1.9309,-5.04279 -2.824631,-7.56439 -0.896858,-2.53044 -1.714029,-4.94783 -2.448949,-7.24814 l -0.0021,-0.008 c -0.63953,-2.03001 -1.11946,-3.6332 -1.53892,-5.0741 2.435669,-3.40162 4.976899,-6.89861 7.669821,-10.529584 l 0.004,-0.004 c 7.94e-4,-0.0011 0.0011,-0.003 0.0021,-0.004 2.892261,-3.85623 5.782751,-7.61524 8.673891,-11.277351 h -0.0021 c 2.921791,-3.692358 5.79528,-7.19052 8.617561,-10.493939 l 0.0021,-0.0021 c 1.53104,-1.789031 2.965209,-3.351789 4.390429,-4.894789 8.730779,8.561207 14.239962,20.387588 14.239962,33.623273 0,26.13825 -21.066553,47.2033 -47.204873,47.2033 -26.13833,0 -47.2048701,-21.06505 -47.2048701,-47.2033 0,-26.138256 21.0666191,-47.204874 47.2048701,-47.204874 z"
       id="path1277"
       inkscape:connector-curvature="0" />
  </g>
</svg>
