<?xml version="1.0" encoding="UTF-8" standalone="no"?>
<!-- Generator: Adobe Illustrator 19.0.0, SVG Export Plug-In . SVG Version: 6.00 Build 0)  -->

<svg
   xmlns:dc="http://purl.org/dc/elements/1.1/"
   xmlns:cc="http://creativecommons.org/ns#"
   xmlns:rdf="http://www.w3.org/1999/02/22-rdf-syntax-ns#"
   xmlns:svg="http://www.w3.org/2000/svg"
   xmlns="http://www.w3.org/2000/svg"
   xmlns:sodipodi="http://sodipodi.sourceforge.net/DTD/sodipodi-0.dtd"
   xmlns:inkscape="http://www.inkscape.org/namespaces/inkscape"
   version="1.1"
   id="Capa_1"
   x="0px"
   y="0px"
   viewBox="0 0 512 512"
   style="enable-background:new 0 0 512 512;"
   xml:space="preserve"
   sodipodi:docname="up.svg"
   inkscape:version="0.92.5 (2060ec1f9f, 2020-04-08)"><metadata
   id="metadata49"><rdf:RDF><cc:Work
       rdf:about=""><dc:format>image/svg+xml</dc:format><dc:type
         rdf:resource="http://purl.org/dc/dcmitype/StillImage" /></cc:Work></rdf:RDF></metadata><defs
   id="defs47" /><sodipodi:namedview
   pagecolor="#ffffff"
   bordercolor="#666666"
   borderopacity="1"
   objecttolerance="10"
   gridtolerance="10"
   guidetolerance="10"
   inkscape:pageopacity="0"
   inkscape:pageshadow="2"
   inkscape:window-width="1920"
   inkscape:window-height="1016"
   id="namedview45"
   showgrid="false"
   inkscape:zoom="0.92770908"
   inkscape:cx="233.61218"
   inkscape:cy="254.4204"
   inkscape:window-x="0"
   inkscape:window-y="27"
   inkscape:window-maximized="1"
   inkscape:current-layer="Capa_1"
   showguides="true"
   inkscape:guide-bbox="true" />
<g
   id="g6"
   style="fill:#bbbac6;fill-opacity:1"
   transform="matrix(1,0,0,-1,0,512)">
	<g
   id="g4"
   style="fill:#bbbac6;fill-opacity:1">
		<path
   d="M 256,482 C 131.383,482 30,380.617 30,256 30,131.383 131.383,30 256,30 380.617,30 482,131.383 482,256 482,380.617 380.617,482 256,482 Z"
   id="path2"
   inkscape:connector-curvature="0"
   sodipodi:nodetypes="sssss"
   style="fill:#bbbac6;fill-opacity:1" />
	</g>
</g>
<path
   style="color:#000000;display:inline;overflow:visible;visibility:visible;opacity:1;vector-effect:none;fill:#2ca089;fill-opacity:1;fill-rule:nonzero;stroke:none;stroke-width:0.1;stroke-miterlimit:4;stroke-dasharray:none;stroke-opacity:1;marker:none;enable-background:accumulate"
   d="m 244.78418,143.38465 -2.98828,3.11133 -40.04883,41.70899 -86.4375,90.02148 c -7.86307,8.18917 -9.17395,19.96508 -2.9375,26.40039 l 43.23633,44.61328 c 6.23645,6.4353 17.5881,5.02315 25.45117,-3.16601 l 74.93945,-78.04883 74.94141,78.04883 c 7.86307,8.18916 19.21471,9.60131 25.45117,3.16601 l 43.23633,-44.61328 c 6.23644,-6.43531 4.92557,-18.21122 -2.9375,-26.40039 l -86.4375,-90.02148 -40.04883,-41.70899 -2.98828,-3.11133 c -2.90448,-3.02492 -6.93739,-4.31618 -11.21484,-4.02148 -4.12505,-0.16501 -8.80544,1.5889 -11.2168,4.02148 z"
   id="rect868"
   inkscape:connector-curvature="0"
   sodipodi:nodetypes="ccccccccccccccccc" />
<g
   id="g14"
   transform="matrix(1,0,0,-1,0,512)">
</g>
<g
   id="g16"
   transform="matrix(1,0,0,-1,0,512)">
</g>
<g
   id="g18"
   transform="matrix(1,0,0,-1,0,512)">
</g>
<g
   id="g20"
   transform="matrix(1,0,0,-1,0,512)">
</g>
<g
   id="g22"
   transform="matrix(1,0,0,-1,0,512)">
</g>
<g
   id="g24"
   transform="matrix(1,0,0,-1,0,512)">
</g>
<g
   id="g26"
   transform="matrix(1,0,0,-1,0,512)">
</g>
<g
   id="g28"
   transform="matrix(1,0,0,-1,0,512)">
</g>
<g
   id="g30"
   transform="matrix(1,0,0,-1,0,512)">
</g>
<g
   id="g32"
   transform="matrix(1,0,0,-1,0,512)">
</g>
<g
   id="g34"
   transform="matrix(1,0,0,-1,0,512)">
</g>
<g
   id="g36"
   transform="matrix(1,0,0,-1,0,512)">
</g>
<g
   id="g38"
   transform="matrix(1,0,0,-1,0,512)">
</g>
<g
   id="g40"
   transform="matrix(1,0,0,-1,0,512)">
</g>
<g
   id="g42"
   transform="matrix(1,0,0,-1,0,512)">
</g>
</svg>